<svg width="128" height="128" viewBox="0 0 16 16" xmlns="http://www.w3.org/2000/svg">
	<rect style="fill:#203e1e;fill-opacity:1" width="1" height="1" x="11" y="15"/>
	<rect style="fill:#32602e;fill-opacity:1" width="1" height="1" x="10" y="15"/>
	<rect style="fill:#203e1e;fill-opacity:1" width="1" height="1" x="9" y="15"/>
	<rect style="fill:#32602e;fill-opacity:1" width="2" height="1" x="7" y="15"/>
	<rect style="fill:#203e1e;fill-opacity:1" width="1" height="1" x="6" y="15"/>
	<rect style="fill:#32602e;fill-opacity:1" width="1" height="1" x="5" y="15"/>
	<rect style="fill:#440606;fill-opacity:1" width="1" height="1" x="4" y="15"/>
	<rect style="fill:#640a0a;fill-opacity:1" width="1" height="1" x="3" y="15"/>
	<rect style="fill:#203e1e;fill-opacity:1" width="1" height="1" x="10" y="14"/>
	<rect style="fill:#b18366;fill-opacity:1" width="4" height="1" x="6" y="14"/>
	<rect style="fill:#203e1e;fill-opacity:1" width="1" height="1" x="5" y="14"/>
	<rect style="fill:#640a0a;fill-opacity:1" width="1" height="1" x="4" y="14"/>
	<rect style="fill:#440606;fill-opacity:1" width="1" height="1" x="3" y="14"/>
	<rect style="fill:#b18366;fill-opacity:1" width="1" height="1" x="11" y="13"/>
	<rect style="fill:#e7b593;fill-opacity:1" width="6" height="1" x="5" y="13"/>
	<rect style="fill:#b18366;fill-opacity:1" width="1" height="1" x="4" y="13"/>
	<rect style="fill:#640a0a;fill-opacity:1" width="1" height="1" x="3" y="13"/>
	<rect style="fill:#b18366;fill-opacity:1" width="1" height="1" x="12" y="12"/>
	<rect style="fill:#e7b593;fill-opacity:1" width="1" height="1" x="11" y="12"/>
	<rect style="fill:#000000;fill-opacity:1" width="2" height="1" x="9" y="12"/>
	<rect style="fill:#e7b593;fill-opacity:1" width="2" height="1" x="7" y="12"/>
	<rect style="fill:#000000;fill-opacity:1" width="2" height="1" x="5" y="12"/>
	<rect style="fill:#e7b593;fill-opacity:1" width="1" height="1" x="4" y="12"/>
	<rect style="fill:#b18366;fill-opacity:1" width="1" height="1" x="3" y="12"/>
	<rect style="fill:#5e0606;fill-opacity:1" width="1" height="1" x="2" y="12"/>
	<rect style="fill:#b18366;fill-opacity:1" width="1" height="1" x="12" y="11"/>
	<rect style="fill:#e7b593;fill-opacity:1" width="8" height="1" x="4" y="11"/>
	<rect style="fill:#b18366;fill-opacity:1" width="1" height="1" x="3" y="11"/>
	<rect style="fill:#5e0606;fill-opacity:1" width="1" height="1" x="2" y="11"/>
	<rect style="fill:#5e0606;fill-opacity:1" width="1" height="1" x="12" y="10"/>
	<rect style="fill:#b18366;fill-opacity:1" width="1" height="1" x="11" y="10"/>
	<rect style="fill:#e7b593;fill-opacity:1" width="1" height="1" x="10" y="10"/>
	<rect style="fill:#b18366;fill-opacity:1" width="1" height="1" x="9" y="10"/>
	<rect style="fill:#e7b593;fill-opacity:1" width="4" height="1" x="5" y="10"/>
	<rect style="fill:#b18366;fill-opacity:1" width="1" height="1" x="4" y="10"/>
	<rect style="fill:#5e0606;fill-opacity:1" width="2" height="1" x="2" y="10"/>
	<rect style="fill:#780a0a;fill-opacity:1" width="1" height="1" x="13" y="9"/>
	<rect style="fill:#5e0606;fill-opacity:1" width="2" height="1" x="11" y="9"/>
	<rect style="fill:#b18366;fill-opacity:1" width="1" height="1" x="10" y="9"/>
	<rect style="fill:#5e0606;fill-opacity:1" width="1" height="1" x="9" y="9"/>
	<rect style="fill:#b18366;fill-opacity:1" width="2" height="1" x="7" y="9"/>
	<rect style="fill:#5e0606;fill-opacity:1" width="1" height="1" x="6" y="9"/>
	<rect style="fill:#b18366;fill-opacity:1" width="1" height="1" x="5" y="9"/>
	<rect style="fill:#5e0606;fill-opacity:1" width="2" height="1" x="3" y="9"/>
	<rect style="fill:#780a0a;fill-opacity:1" width="1" height="1" x="2" y="9"/>
	<rect style="fill:#780a0a;fill-opacity:1" width="3" height="1" x="12" y="8"/>
	<rect style="fill:#5e0606;fill-opacity:1" width="4" height="1" x="8" y="8"/>
	<rect style="fill:#b18366;fill-opacity:1" width="1" height="1" x="7" y="8"/>
	<rect style="fill:#5e0606;fill-opacity:1" width="2" height="1" x="5" y="8"/>
	<rect style="fill:#780a0a;fill-opacity:1" width="1" height="1" x="4" y="8"/>
	<rect style="fill:#5e0606;fill-opacity:1" width="1" height="1" x="3" y="8"/>
	<rect style="fill:#780a0a;fill-opacity:1" width="1" height="1" x="2" y="8"/>
	<rect style="fill:#780a0a;fill-opacity:1" width="1" height="1" x="1" y="8"/>
	<rect style="fill:#8b0c0c;fill-opacity:1" width="1" height="1" x="14" y="7"/>
	<rect style="fill:#780a0a;fill-opacity:1" width="3" height="1" x="11" y="7"/>
	<rect style="fill:#5e0606;fill-opacity:1" width="1" height="1" x="10" y="7"/>
	<rect style="fill:#780a0a;fill-opacity:1" width="1" height="1" x="9" y="7"/>
	<rect style="fill:#5e0606;fill-opacity:1" width="3" height="1" x="6" y="7"/>
	<rect style="fill:#780a0a;fill-opacity:1" width="5" height="1" x="1" y="7"/>
	<rect style="fill:#8b0c0c;fill-opacity:1" width="3" height="1" x="12" y="6"/>
	<rect style="fill:#780a0a;fill-opacity:1" width="3" height="1" x="9" y="6"/>
	<rect style="fill:#5e0606;fill-opacity:1" width="1" height="1" x="8" y="6"/>
	<rect style="fill:#780a0a;fill-opacity:1" width="5" height="1" x="3" y="6"/>
	<rect style="fill:#8b0c0c;fill-opacity:1" width="1" height="1" x="2" y="6"/>
	<rect style="fill:#780a0a;fill-opacity:1" width="1" height="1" x="1" y="6"/>
	<rect style="fill:#aa0d0d;fill-opacity:1" width="1" height="1" x="13" y="5"/>
	<rect style="fill:#8b0c0c;fill-opacity:1" width="2" height="1" x="11" y="5"/>
	<rect style="fill:#780a0a;fill-opacity:1" width="5" height="1" x="6" y="5"/>
	<rect style="fill:#8c0c0c;fill-opacity:1" width="1" height="1" x="5" y="5"/>
	<rect style="fill:#780a0a;fill-opacity:1" width="1" height="1" x="4" y="5"/>
	<rect style="fill:#8b0c0c;fill-opacity:1" width="2" height="1" x="2" y="5"/>
	<rect style="fill:#a90e0e;fill-opacity:1" width="2" height="1" x="12" y="4"/>
	<rect style="fill:#8b0c0c;fill-opacity:1" width="1" height="1" x="11" y="4"/>
	<rect style="fill:#780a0a;fill-opacity:1" width="1" height="1" x="10" y="4"/>
	<rect style="fill:#8b0c0c;fill-opacity:1" width="1" height="1" x="9" y="4"/>
	<rect style="fill:#780a0a;fill-opacity:1" width="2" height="1" x="7" y="4"/>
	<rect style="fill:#8b0c0c;fill-opacity:1" width="3" height="1" x="4" y="4"/>
	<rect style="fill:#aa0e0e;fill-opacity:1" width="2" height="1" x="2" y="4"/>
	<rect style="fill:#aa0e0e;fill-opacity:1" width="2" height="1" x="11" y="3"/>
	<rect style="fill:#8b0c0c;fill-opacity:1" width="6" height="1" x="5" y="3"/>
	<rect style="fill:#aa0e0e;fill-opacity:1" width="2" height="1" x="3" y="3"/>
	<rect style="fill:#aa0e0e;fill-opacity:1" width="3" height="1" x="9" y="2"/>
	<rect style="fill:#8b0c0c;fill-opacity:1" width="2" height="1" x="7" y="2"/>
	<rect style="fill:#aa0e0e;fill-opacity:1" width="3" height="1" x="4" y="2"/>
	<rect style="fill:#aa0e0e;fill-opacity:1" width="4" height="1" x="6" y="1"/>
</svg>
